HIERARCHY
ROOT Hips
{
	OFFSET 0.000000 0.000000 0.000000
	CHANNELS 6 Xposition Yposition Zposition Zrotation Yrotation Xrotation 
	JOINT LowerBack
	{
		OFFSET 0.000000 0.000000 0.000000
		CHANNELS 3 Zrotation Yrotation Xrotation
		JOINT Spine
		{
			OFFSET 0.028270 2.035590 -0.193380
			CHANNELS 3 Zrotation Yrotation Xrotation
			JOINT Spine1
			{
				OFFSET 0.056720 2.048850 -0.042750
				CHANNELS 3 Zrotation Yrotation Xrotation
				JOINT Neck
				{
					OFFSET 0.000000 0.000000 0.000000
					CHANNELS 3 Zrotation Yrotation Xrotation
					JOINT Neck1
					{
						OFFSET -0.054170 1.746240 0.172020
						CHANNELS 3 Zrotation Yrotation Xrotation
						JOINT Head
						{
							OFFSET 0.104070 1.761360 -0.123970
							CHANNELS 3 Zrotation Yrotation Xrotation
							End Site
							{
								OFFSET 0.000000 0.000000 0.000000
							}
						}
					}
				}
				JOINT LeftShoulder
				{
					OFFSET 0.000000 0.000000 0.000000
					CHANNELS 3 Zrotation Yrotation Xrotation
					JOINT LeftArm
					{
						OFFSET 3.362410 1.200890 -0.311210
						CHANNELS 3 Zrotation Yrotation Xrotation
						JOINT LeftForeArm
						{
							OFFSET 4.983000 -0.000000 -0.000000
							CHANNELS 3 Zrotation Yrotation Xrotation
							JOINT LeftHand
							{
								OFFSET 3.483560 -0.000000 -0.000000
								CHANNELS 3 Zrotation Yrotation Xrotation
								JOINT LeftFingerBase
								{
									OFFSET 0.000000 0.000000 0.000000
									CHANNELS 3 Zrotation Yrotation Xrotation
									JOINT LeftHandIndex1
									{
										OFFSET 0.715260 -0.000000 -0.000000
										CHANNELS 3 Zrotation Yrotation Xrotation
										End Site
										{
											OFFSET 0.000000 0.000000 0.000000
										}
									}
								}
								JOINT LThumb
								{
									OFFSET 0.000000 0.000000 0.000000
									CHANNELS 3 Zrotation Yrotation Xrotation
									End Site
									{
										OFFSET 0.000000 0.000000 0.000000
									}
								}
							}
						}
					}
				}
				JOINT RightShoulder
				{
					OFFSET 0.000000 0.000000 0.000000
					CHANNELS 3 Zrotation Yrotation Xrotation
					JOINT RightArm
					{
						OFFSET -3.136600 1.374050 -0.404650
						CHANNELS 3 Zrotation Yrotation Xrotation
						JOINT RightForeArm
						{
							OFFSET -5.241900 -0.000000 -0.000000
							CHANNELS 3 Zrotation Yrotation Xrotation
							JOINT RightHand
							{
								OFFSET -3.444170 -0.000000 -0.000000
								CHANNELS 3 Zrotation Yrotation Xrotation
								JOINT RightFingerBase
								{
									OFFSET 0.000000 0.000000 0.000000
									CHANNELS 3 Zrotation Yrotation Xrotation
									JOINT RightHandIndex1
									{
										OFFSET -0.622530 -0.000000 -0.000000
										CHANNELS 3 Zrotation Yrotation Xrotation
										End Site
										{
											OFFSET 0.000000 0.000000 0.000000
										}
									}
								}
								JOINT RThumb
								{
									OFFSET 0.000000 0.000000 0.000000
									CHANNELS 3 Zrotation Yrotation Xrotation
									End Site
									{
										OFFSET 0.000000 0.000000 0.000000
									}
								}
							}
						}
					}
				}
			}
		}
	}
}
}
MOTION
Frames: 9
Frame Time: 0.008333
-4.165719 16.872054 0.759966 -61.303929 87.517364 -54.501109 -0.471351 0.328454 -0.829309 -1.273248 0.253370 -3.231409 -7.775841 0.182468 0.301724 10.930285 -1.921228 -4.442701 -4.514328 -0.372360 0.797511 0.000000 0.000000 0.000000 -6.415180 12.655246 1.539424 -71.567084 15.879890 9.488551 -2.943968 -22.364860 -0.001366 1.238995 5.289290 0.059390 -0.030778 -0.078642 -0.000000 0.000000 0.000000 0.000000 0.000000 0.000000 0.000000 20.700647 2.911462 -0.093638 66.679973 26.948790 12.931423 2.641066 35.078397 0.012077 1.833948 6.810079 0.110543 0.038914 -0.182248 0.000000 0.000000 0.000000 0.000000 0.000000 0.000000 0.000000 
-4.016536 16.886260 0.726100 -71.990093 88.095828 -65.282488 -0.956670 0.153205 -0.924517 -1.365538 0.105348 -3.241144 -7.816642 0.031688 0.325665 11.095526 -2.024456 -4.449833 -4.556250 -0.375478 0.792702 0.000000 0.000000 0.000000 -6.176032 12.443558 1.517709 -71.321600 15.426391 9.602713 -2.974515 -22.231052 -0.001458 1.284712 5.261562 0.061300 -0.032463 -0.076973 -0.000000 0.000000 0.000000 0.000000 0.000000 0.000000 0.000000 21.081632 2.664052 -0.090488 66.912447 26.086923 12.508680 2.690555 34.166130 0.012288 1.990572 6.754166 0.119033 0.039144 -0.174856 0.000000 0.000000 0.000000 0.000000 0.000000 0.000000 0.000000 
-3.870807 16.902127 0.692028 -106.646799 88.893906 -100.005768 -1.801521 -0.116715 -1.001839 -1.493354 -0.110054 -3.244348 -7.824730 -0.192080 0.342092 11.246011 -2.127776 -4.448646 -4.591120 -0.378240 0.788833 0.000000 0.000000 0.000000 -5.891792 12.113956 1.519219 -71.093457 14.920524 9.707593 -3.018004 -22.085253 -0.001625 1.339904 5.240557 0.063716 -0.034979 -0.074682 -0.000000 0.000000 0.000000 0.000000 0.000000 0.000000 0.000000 21.421321 2.360593 -0.094234 67.154706 25.183980 11.929982 2.726669 33.207507 0.012279 2.126369 6.664733 0.125517 0.038730 -0.167285 0.000000 0.000000 0.000000 0.000000 0.000000 0.000000 0.000000 
-3.728741 16.919018 0.655394 15.139815 89.908728 21.734542 -2.969084 -0.024579 -1.125169 -1.697371 0.055543 -3.282896 -7.840344 -0.042278 0.343496 11.362143 -2.229590 -4.467655 -4.619112 -0.379915 0.782983 0.000000 0.000000 0.000000 -5.630149 11.969098 1.443041 -70.857924 14.343207 9.822766 -3.047712 -21.971626 -0.001743 1.403184 5.224406 0.066621 -0.037303 -0.074237 -0.000000 0.000000 0.000000 0.000000 0.000000 0.000000 0.000000 21.696295 2.251468 -0.035534 67.387061 24.305681 11.248720 2.779225 32.176144 0.012404 2.232528 6.547924 0.129417 0.039582 -0.161990 0.000000 0.000000 0.000000 0.000000 0.000000 0.000000 0.000000 
-3.591140 16.936014 0.617111 -6.694224 89.907254 -0.125411 -3.039330 0.045974 -1.224510 -1.759159 0.123058 -3.309911 -7.896789 0.027294 0.350881 11.416810 -2.334048 -4.496432 -4.651722 -0.381965 0.775399 0.000000 0.000000 0.000000 -5.390377 11.741746 1.389459 -70.640613 13.683956 9.958904 -3.058557 -21.844009 -0.001768 1.474169 5.216793 0.069732 -0.038219 -0.071953 -0.000000 0.000000 0.000000 0.000000 0.000000 0.000000 0.000000 21.900783 2.118518 0.017106 67.596732 23.420769 10.471808 2.844179 31.137007 0.012507 2.312488 6.406867 0.131011 0.041730 -0.155640 0.000000 0.000000 0.000000 0.000000 0.000000 0.000000 0.000000 
-3.458185 16.952491 0.576451 167.030520 89.586044 173.624646 -3.209666 -0.020318 -1.308863 -1.807332 0.063506 -3.325375 -7.922491 -0.032863 0.354995 11.434662 -2.419852 -4.522369 -4.678120 -0.383742 0.767347 0.000000 0.000000 0.000000 -5.159348 11.410440 1.374911 -70.434257 12.941607 10.137933 -3.077147 -21.723499 -0.001872 1.545925 5.216765 0.073149 -0.039667 -0.068385 -0.000000 0.000000 0.000000 0.000000 0.000000 0.000000 0.000000 22.038762 1.928598 0.055338 67.779227 22.510818 9.593653 2.896195 30.088188 0.012411 2.369591 6.246241 0.130796 0.043308 -0.148863 0.000000 0.000000 0.000000 0.000000 0.000000 0.000000 0.000000 
-3.330189 16.967764 0.534727 164.268979 89.016222 170.907063 -3.431540 -0.093657 -1.372477 -1.855991 0.001752 -3.338276 -7.937723 -0.096846 0.349367 11.425043 -2.492805 -4.549633 -4.701694 -0.385296 0.758658 0.000000 0.000000 0.000000 -4.936679 11.028285 1.370820 -70.228682 12.149233 10.331558 -3.096275 -21.653029 -0.002015 1.614162 5.223806 0.076367 -0.041236 -0.064350 -0.000000 0.000000 0.000000 0.000000 0.000000 0.000000 0.000000 22.135550 1.746687 0.103695 67.929809 21.609557 8.661851 2.944785 29.019863 0.012231 2.404297 6.069324 0.128878 0.044884 -0.142378 0.000000 0.000000 0.000000 0.000000 0.000000 0.000000 0.000000 
-3.206930 16.981545 0.491318 163.422153 88.445961 170.122569 -3.634592 -0.159034 -1.420158 -1.895971 -0.052339 -3.349236 -7.946210 -0.153982 0.338598 11.383068 -2.531966 -4.580478 -4.722321 -0.386535 0.748884 0.000000 0.000000 0.000000 -4.738783 10.655582 1.374562 -70.013121 11.264744 10.593251 -3.113370 -21.610783 -0.002190 1.677936 5.230200 0.079488 -0.042868 -0.059758 -0.000000 0.000000 0.000000 0.000000 0.000000 0.000000 0.000000 22.180525 1.605022 0.158913 68.048340 20.706315 7.669654 2.991853 27.942832 0.012012 2.429663 5.885375 0.126159 0.046416 -0.136226 0.000000 0.000000 0.000000 0.000000 0.000000 0.000000 0.000000 
-3.088169 16.993675 0.446684 163.336897 87.894538 170.107350 -3.802611 -0.213682 -1.447450 -1.927238 -0.097202 -3.357930 -7.951800 -0.202149 0.321172 11.315253 -2.546402 -4.612913 -4.741987 -0.387621 0.738508 0.000000 0.000000 0.000000 -4.573531 10.278056 1.384221 -69.778854 10.320447 10.898719 -3.128118 -21.622101 -0.002390 1.733122 5.234092 0.082110 -0.044492 -0.054772 -0.000000 0.000000 0.000000 0.000000 0.000000 0.000000 0.000000 22.191316 1.494355 0.223299 68.131184 19.821439 6.660958 3.039248 26.844542 0.011775 2.444110 5.704286 0.122938 0.048030 -0.130414 0.000000 0.000000 0.000000 0.000000 0.000000 0.000000 0.000000 
